<?xml version="1.0" encoding="UTF-8" standalone="no"?>
<!DOCTYPE svg PUBLIC "-//W3C//DTD SVG 1.1//EN" "http://www.w3.org/Graphics/SVG/1.1/DTD/svg11.dtd">
<svg width="12" height="12" viewBox="0 0 24 24" version="1.1" xmlns="http://www.w3.org/2000/svg" xmlns:xlink="http://www.w3.org/1999/xlink" xml:space="preserve" xmlns:serif="http://www.serif.com/" style="fill-rule:evenodd;clip-rule:evenodd;stroke-linejoin:round;stroke-miterlimit:2;">
    <g transform="matrix(0.055069,0,0,0.055069,0.0834322,0)">
        <path d="M374.363,342.635C348.8,369.524 316.071,384.335 282.203,384.335C226.694,384.335 178.631,345.354 156.011,289.006L310.197,289.006C323.567,289.006 334.407,278.166 334.407,264.796C334.407,251.426 323.567,240.586 310.197,240.586L143.708,240.586C142.756,232.671 142.236,224.597 142.236,216.375C142.236,207.101 142.889,198.01 144.107,189.138L310.197,189.138C323.567,189.138 334.407,178.298 334.407,164.928C334.407,151.558 323.567,140.717 310.197,140.717L157.299,140.717C180.404,86.019 227.699,48.415 282.203,48.415C316.071,48.415 348.8,63.227 374.363,90.113C383.566,99.798 398.881,100.196 408.587,90.985C418.28,81.77 418.664,66.446 409.462,56.756C374.671,20.156 329.478,0 282.209,0C201.497,0 132.504,58.62 105.731,140.724L40.854,140.724C27.484,140.724 16.644,151.564 16.644,164.934C16.644,178.304 27.484,189.144 40.854,189.144L95.357,189.144C94.376,198.078 93.815,207.151 93.815,216.381C93.815,224.573 94.243,232.636 95.026,240.592L40.854,240.592C27.484,240.592 16.644,251.432 16.644,264.802C16.644,278.172 27.484,289.012 40.854,289.012L104.77,289.012C130.813,372.703 200.503,432.762 282.203,432.762C329.477,432.762 374.659,412.601 409.45,376.007C418.658,366.314 418.28,350.992 408.581,341.778C398.894,332.563 383.566,332.948 374.363,342.635Z" style="fill-rule:nonzero;"/>
    </g>
</svg>
